<svg xmlns="http://www.w3.org/2000/svg" viewBox="0 0 512 512" width="512" height="512">
  <!-- Background circle -->
  <circle cx="256" cy="256" r="240" fill="#2563eb" />

  <!-- Server rack icon -->
  <rect x="120" y="140" width="272" height="48" rx="8" fill="#ffffff" opacity="0.9"/>
  <rect x="120" y="208" width="272" height="48" rx="8" fill="#ffffff" opacity="0.9"/>
  <rect x="120" y="276" width="272" height="48" rx="8" fill="#ffffff" opacity="0.9"/>

  <!-- Status lights -->
  <circle cx="144" cy="164" r="8" fill="#22c55e"/>
  <circle cx="168" cy="164" r="8" fill="#22c55e"/>
  <circle cx="192" cy="164" r="8" fill="#22c55e"/>

  <circle cx="144" cy="232" r="8" fill="#22c55e"/>
  <circle cx="168" cy="232" r="8" fill="#22c55e"/>
  <circle cx="192" cy="232" r="8" fill="#22c55e"/>

  <circle cx="144" cy="300" r="8" fill="#22c55e"/>
  <circle cx="168" cy="300" r="8" fill="#22c55e"/>
  <circle cx="192" cy="300" r="8" fill="#22c55e"/>

  <!-- HTTP text -->
  <text x="256" y="178" font-family="Arial, sans-serif" font-size="24" font-weight="bold" fill="#1e40af" text-anchor="middle">HTTP</text>
  <text x="256" y="246" font-family="Arial, sans-serif" font-size="24" font-weight="bold" fill="#1e40af" text-anchor="middle">Server</text>

  <!-- Port indicators -->
  <text x="256" y="310" font-family="monospace" font-size="20" fill="#1e40af" text-anchor="middle">:8080</text>

  <!-- Globe/world icon overlay (subtle) -->
  <circle cx="360" cy="348" r="40" fill="#ffffff" opacity="0.3"/>
  <path d="M 340 348 Q 360 320 380 348 Q 360 376 340 348" stroke="#ffffff" stroke-width="2" fill="none" opacity="0.5"/>
  <line x1="360" y1="308" x2="360" y2="388" stroke="#ffffff" stroke-width="2" opacity="0.5"/>
</svg>
